# xmcd
#
# Track frame offsets: 
#        150
#        19155
#        40767
#        57805
#        81140
#        99490
#        113350
#        131195
#        159167
#        177427
#        197767
#        218410
#        248327
#        262875
#        278367
#
# Disc length: 4131 seconds
#
# Revision: 5
# Processed by: cddbd v1.5.2PL0 Copyright (c) Steve Scherf et al.
# Submitted via: ExactAudioCopy v1.0b4
#
DISCID=b210210f
DTITLE=Mississippi Heat - Learned The Hard Way
DYEAR=1994
DGENRE=Blues
TTITLE0=I Love My Baby
TTITLE1=Learned The Hard Way
TTITLE2=Let's Pack Our Bags
TTITLE3=Je Me Souviens  (I Remember Too)
TTITLE4=Keep Your Hands Off Her
TTITLE5=He's Not Good For Me
TTITLE6=My Woman Is An Old Black Spider
TTITLE7=Moanin' And Cryin'
TTITLE8=Kindhearted Fool
TTITLE9=Lonely Nights No More
TTITLE10=The Wrong Guy
TTITLE11=How Long Can A Man be Poor?
TTITLE12=Got To Change Your Ways
TTITLE13=Bull Frog Hop
TTITLE14=Mean Old World
EXTD=YEAR: 1994
EXTT0=
EXTT1=
EXTT2=
EXTT3=
EXTT4=
EXTT5=
EXTT6=
EXTT7=
EXTT8=
EXTT9=
EXTT10=
EXTT11=
EXTT12=
EXTT13=
EXTT14=
PLAYORDER=
